<svg xmlns="http://www.w3.org/2000/svg" xmlns:xlink="http://www.w3.org/1999/xlink" viewBox="0,0,256,256" width="100px" height="100px"><g fill="#fcc419" fill-rule="nonzero" stroke="none" stroke-width="1" stroke-linecap="butt" stroke-linejoin="miter" stroke-miterlimit="10" stroke-dasharray="" stroke-dashoffset="0" font-family="none" font-weight="none" font-size="none" text-anchor="none" style="mix-blend-mode: normal"><g transform="scale(2.56,2.56)"><path d="M30.92188,17.92188c-7.168,0 -13,5.832 -13,13v39c0,7.168 5.832,13 13,13h39c7.168,0 13,-5.832 13,-13v-39c0,-7.168 -5.832,-13 -13,-13zM30.92188,19.92188h39c6.065,0 11,4.935 11,11v39c0,6.065 -4.935,11 -11,11h-39c-6.065,0 -11,-4.935 -11,-11v-39c0,-6.065 4.935,-11 11,-11zM33.75781,22.92188c-5.976,0 -10.83594,4.85994 -10.83594,10.83594v33.32617c0,5.976 4.85994,10.83789 10.83594,10.83789h33.32617c5.976,0 10.83789,-4.86189 10.83789,-10.83789v-18.66211c0,-0.276 -0.223,-0.5 -0.5,-0.5c-0.276,0 -0.5,0.224 -0.5,0.5v18.66211c0,5.424 -4.41389,9.83789 -9.83789,9.83789h-33.32617c-5.424,0 -9.83594,-4.41389 -9.83594,-9.83789v-33.32617c0,-5.424 4.41194,-9.83594 9.83594,-9.83594h33.66406c0.276,0 0.5,-0.224 0.5,-0.5c0,-0.276 -0.224,-0.5 -0.5,-0.5zM77.42188,36.92188c-0.276,0 -0.5,0.224 -0.5,0.5v2c0,0.276 0.224,0.5 0.5,0.5c0.276,0 0.5,-0.224 0.5,-0.5v-2c0,-0.276 -0.224,-0.5 -0.5,-0.5zM36.50781,37.93359c-0.276,0 -0.5,0.224 -0.5,0.5v23.97656c0,0.276 0.224,0.5 0.5,0.5h3.03906c0.276,0 0.5,-0.224 0.5,-0.5v-8.96875h1.42773c1.456,0 2.83466,-0.18301 4.09766,-0.54102c1.273,-0.362 2.3978,-0.89031 3.3418,-1.57031c0.958,-0.69 1.71595,-1.53748 2.25195,-2.52148c0.543,-0.995 0.81836,-2.12447 0.81836,-3.35547c0,-1.252 -0.25572,-2.3655 -0.76172,-3.3125c-0.504,-0.943 -1.2087,-1.74014 -2.0957,-2.36914c-0.872,-0.62 -1.90908,-1.08662 -3.08008,-1.39062c-1.154,-0.297 -2.41514,-0.44727 -3.74414,-0.44727zM37.00781,38.93359h5.29688c1.245,0 2.42019,0.14001 3.49219,0.41602c1.053,0.272 1.97895,0.68733 2.75195,1.23633c0.759,0.539 1.36297,1.22144 1.79297,2.02344c0.426,0.801 0.64258,1.75775 0.64258,2.84375c0,1.062 -0.23431,2.028 -0.69531,2.875c-0.465,0.852 -1.12398,1.58941 -1.95898,2.19141c-0.85,0.611 -1.86925,1.08897 -3.03125,1.41797c-1.174,0.334 -2.45927,0.50391 -3.82227,0.50391h-1.92969c-0.276,0 -0.5,0.224 -0.5,0.5v8.96875h-2.03906zM39.54688,40.59766c-0.276,0 -0.5,0.224 -0.5,0.5v9.17969c0,0.276 0.224,0.5 0.5,0.5h2.03711c1.002,0 1.93544,-0.1158 2.77344,-0.3418c0.856,-0.229 1.61395,-0.5743 2.25195,-1.0293c0.649,-0.464 1.15962,-1.03722 1.51563,-1.69922c0.363,-0.671 0.54688,-1.44106 0.54688,-2.28906c0,-0.878 -0.18016,-1.63405 -0.53516,-2.24805c-0.351,-0.608 -0.83641,-1.11391 -1.44141,-1.50391c-0.589,-0.379 -1.28622,-0.65622 -2.07422,-0.82422c-0.764,-0.162 -1.57878,-0.24414 -2.42578,-0.24414zM77.42188,40.92188c-0.276,0 -0.5,0.224 -0.5,0.5v4c0,0.276 0.224,0.5 0.5,0.5c0.276,0 0.5,-0.224 0.5,-0.5v-4c0,-0.276 -0.223,-0.5 -0.5,-0.5zM40.04688,41.59766h2.14844c0.776,0 1.5218,0.07366 2.2168,0.22266c0.669,0.143 1.25619,0.37545 1.74219,0.68945c0.477,0.307 0.84123,0.68616 1.11523,1.16016c0.266,0.46 0.40039,1.04805 0.40039,1.74805c0.001,0.679 -0.14278,1.28945 -0.42578,1.81445c-0.284,0.528 -0.6928,0.98537 -1.2168,1.35938c-0.539,0.385 -1.18673,0.68091 -1.92773,0.87891c-0.756,0.203 -1.60358,0.30664 -2.51758,0.30664h-1.53516zM62.7832,44.41406c-1.468,0 -2.67394,0.33414 -3.58594,0.99414c-0.444,0.322 -0.84708,0.71855 -1.20508,1.18555v-1.46484c0.001,-0.277 -0.224,-0.5 -0.5,-0.5h-3.0957c-0.276,0 -0.5,0.224 -0.5,0.5v17.28125c0,0.276 0.224,0.5 0.5,0.5h3.24023c0.276,0 0.5,-0.224 0.5,-0.5v-11.41602c0.582,-0.934 1.28389,-1.61811 2.08789,-2.03711c0.848,-0.44 1.8775,-0.66406 3.0625,-0.66406h0.82813c0.276,0 0.5,-0.224 0.5,-0.5v-2.69922c0,-0.216 -0.1378,-0.40661 -0.3418,-0.47461c-0.412,-0.136 -0.91324,-0.20508 -1.49023,-0.20508zM62.78516,45.41211c0.312,0 0.59003,0.02236 0.83203,0.06836v1.8125h-0.32813c-1.348,0 -2.53244,0.26039 -3.52344,0.77539c-1.004,0.521 -1.86464,1.37334 -2.55664,2.52734c-0.047,0.077 -0.07031,0.16486 -0.07031,0.25586v11.05859h-2.24023v-16.28125h2.0957v2.81055c0,0.236 0.16548,0.44223 0.39648,0.49023c0.229,0.05 0.46455,-0.07206 0.56055,-0.28906c0.463,-1.062 1.08103,-1.87788 1.83203,-2.42187c0.738,-0.535 1.74895,-0.80664 3.00195,-0.80664z"></path></g></g></svg>