<svg xmlns="http://www.w3.org/2000/svg" xmlns:xlink="http://www.w3.org/1999/xlink" viewBox="0,0,256,256" width="100px" height="100px"><g fill="#fcc419" fill-rule="nonzero" stroke="none" stroke-width="1" stroke-linecap="butt" stroke-linejoin="miter" stroke-miterlimit="10" stroke-dasharray="" stroke-dashoffset="0" font-family="none" font-weight="none" font-size="none" text-anchor="none" style="mix-blend-mode: normal"><g transform="scale(2.56,2.56)"><path d="M31,17.92188c-7.168,0 -13,5.832 -13,13v39c0,7.168 5.832,13 13,13h39c7.168,0 13,-5.832 13,-13v-39c0,-7.168 -5.832,-13 -13,-13zM31,19.92188h39c6.065,0 11,4.935 11,11v39c0,6.065 -4.935,11 -11,11h-39c-6.065,0 -11,-4.935 -11,-11v-39c0,-6.065 4.935,-11 11,-11zM33.83789,22.92188c-5.976,0 -10.83789,4.86094 -10.83789,10.83594v33.32617c0,5.976 4.86189,10.83789 10.83789,10.83789h33.32422c5.976,0 10.83789,-4.86189 10.83789,-10.83789v-18.66211c0,-0.276 -0.224,-0.5 -0.5,-0.5c-0.276,0 -0.5,0.224 -0.5,0.5v18.66211c0,5.424 -4.41389,9.83789 -9.83789,9.83789h-33.32422c-5.424,0 -9.83789,-4.41389 -9.83789,-9.83789v-33.32617c0,-5.424 4.41389,-9.83594 9.83789,-9.83594h33.66211c0.276,0 0.5,-0.224 0.5,-0.5c0,-0.276 -0.224,-0.5 -0.5,-0.5zM36.5,36.92188c-0.276,0 -0.5,0.224 -0.5,0.5v24c0,0.276 0.224,0.5 0.5,0.5h3c0.276,0 0.5,-0.224 0.5,-0.5v-8.5h1.63672c1.504,0 2.92747,-0.18955 4.23047,-0.56055c1.314,-0.374 2.47617,-0.91909 3.45117,-1.62109c0.988,-0.711 1.77022,-1.58651 2.32422,-2.60352c0.559,-1.025 0.8418,-2.18798 0.8418,-3.45898c-0.001,-1.292 -0.26416,-2.44002 -0.78516,-3.41602c-0.518,-0.97 -1.24511,-1.79136 -2.16211,-2.44336c-0.903,-0.641 -1.97369,-1.12355 -3.17969,-1.43555c-1.188,-0.307 -2.48723,-0.46094 -3.86523,-0.46094zM77.5,36.92188c-0.276,0 -0.5,0.224 -0.5,0.5v2c0,0.276 0.224,0.5 0.5,0.5c0.276,0 0.5,-0.224 0.5,-0.5v-2c0,-0.276 -0.224,-0.5 -0.5,-0.5zM37,37.92383h5.49219c1.293,0 2.51119,0.14369 3.61719,0.42969c1.088,0.28 2.04756,0.71225 2.85156,1.28125c0.789,0.562 1.41342,1.26861 1.85742,2.09961c0.442,0.829 0.66602,1.82027 0.66602,2.94727c-0.001,1.099 -0.2427,2.10151 -0.7207,2.97852c-0.482,0.884 -1.1653,1.64748 -2.0293,2.27148c-0.881,0.635 -1.93667,1.1287 -3.13867,1.4707c-1.214,0.346 -2.54698,0.52148 -3.95898,0.52148h-2.13672c-0.276,0 -0.5,0.224 -0.5,0.5v8.5h-2zM39.5,39.92188c-0.276,0 -0.5,0.224 -0.5,0.5v9c0,0.276 0.224,0.5 0.5,0.5h1.875c1.054,0 2.04064,-0.11298 2.93164,-0.33398c0.902,-0.223 1.702,-0.55995 2.375,-1.00195c0.687,-0.452 1.22738,-1.01302 1.60938,-1.66602c0.388,-0.663 0.58398,-1.42663 0.58398,-2.26562c0,-0.866 -0.19322,-1.61461 -0.57422,-2.22461c-0.372,-0.593 -0.88439,-1.08675 -1.52539,-1.46875c-0.62,-0.368 -1.3555,-0.63974 -2.1875,-0.80273c-0.806,-0.158 -1.6675,-0.23633 -2.5625,-0.23633zM40,40.92188h2.02539c0.831,0 1.62809,0.07375 2.37109,0.21875c0.718,0.142 1.34619,0.36969 1.86719,0.67969c0.51,0.304 0.89845,0.67858 1.18945,1.14258c0.28,0.448 0.42188,1.01736 0.42188,1.69336c0,0.669 -0.14527,1.24381 -0.44727,1.75781c-0.304,0.52 -0.73987,0.96894 -1.29687,1.33594c-0.577,0.38 -1.27245,0.67219 -2.06445,0.86719c-0.813,0.201 -1.71841,0.30469 -2.69141,0.30469h-1.375zM77.5,40.92188c-0.276,0 -0.5,0.224 -0.5,0.5v4c0,0.276 0.224,0.5 0.5,0.5c0.276,0 0.5,-0.224 0.5,-0.5v-4c0,-0.276 -0.224,-0.5 -0.5,-0.5zM59.47852,43.66797c-0.8815,-0.00962 -1.7612,0.08025 -2.5957,0.28125c-0.797,0.192 -1.51295,0.50292 -2.12695,0.91992c-0.624,0.426 -1.13553,0.97667 -1.51953,1.63867c-0.391,0.674 -0.58789,1.48611 -0.58789,2.41211c0,0.854 0.18669,1.60347 0.55469,2.23047c0.354,0.604 0.817,1.14075 1.375,1.59375c0.545,0.443 1.15359,0.82758 1.80859,1.14258c0.629,0.303 1.27053,0.58031 1.89453,0.82031c0.451,0.19 0.88578,0.38036 1.30078,0.56836c0.389,0.179 0.72872,0.37408 1.01172,0.58008c0.259,0.189 0.47186,0.4112 0.63086,0.6582c0.141,0.22 0.20898,0.46686 0.20898,0.75586c0,0.629 -0.25292,1.05484 -0.79492,1.33984c-0.632,0.332 -1.43195,0.5 -2.37695,0.5c-0.937,0 -1.79478,-0.10169 -2.55078,-0.30469c-0.783,-0.211 -1.48313,-0.44722 -2.07813,-0.69922c-0.138,-0.061 -0.29473,-0.05342 -0.42773,0.01758c-0.132,0.069 -0.22681,0.19284 -0.25781,0.33984l-0.53906,2.55664c-0.052,0.229 0.06534,0.46159 0.27734,0.55859c0.336,0.154 0.74017,0.30345 1.20117,0.43945c0.46,0.137 0.94069,0.25356 1.42969,0.35156c0.487,0.098 0.98728,0.17361 1.48828,0.22461c0.498,0.05 0.97497,0.07422 1.41797,0.07422c1.028,0 1.99691,-0.13344 2.87891,-0.39844c0.891,-0.267 1.67699,-0.65062 2.33398,-1.14062c0.668,-0.497 1.20003,-1.10831 1.58203,-1.82031c0.386,-0.719 0.58203,-1.53564 0.58203,-2.43164c0,-0.99 -0.26325,-1.85445 -0.78125,-2.56445c-0.487,-0.666 -1.06566,-1.23064 -1.72266,-1.68164c-0.635,-0.436 -1.28741,-0.79917 -1.94141,-1.07617c-0.617,-0.261 -1.08095,-0.46161 -1.37695,-0.59961c-0.343,-0.17 -0.70856,-0.34363 -1.10156,-0.51562c-0.356,-0.154 -0.69109,-0.32853 -0.99609,-0.51953c-0.276,-0.174 -0.50092,-0.36717 -0.66992,-0.57617c-0.131,-0.162 -0.19531,-0.36047 -0.19531,-0.60547c0,-0.756 0.33489,-1.01072 0.58789,-1.13672c0.983,-0.493 2.60931,-0.47105 4.07031,-0.12305c0.718,0.172 1.41812,0.42028 2.07813,0.73828c0.139,0.067 0.29855,0.067 0.43555,0c0.138,-0.067 0.23653,-0.19375 0.26953,-0.34375l0.54102,-2.44727c0.049,-0.221 -0.05877,-0.44773 -0.25977,-0.55273c-0.731,-0.377 -1.55708,-0.67472 -2.45508,-0.88672c-0.8395,-0.1985 -1.72201,-0.30873 -2.60352,-0.31836zM59.48242,44.66992c0.80313,0.01 1.60759,0.11102 2.37109,0.29102c0.679,0.161 1.30986,0.37372 1.88086,0.63672l-0.32227,1.46289c-0.551,-0.229 -1.12303,-0.41273 -1.70703,-0.55273c-1.69,-0.401 -3.545,-0.40378 -4.75,0.19922c-0.521,0.26 -1.14062,0.82425 -1.14062,2.03125c0,0.476 0.14197,0.89142 0.41797,1.23242c0.237,0.294 0.54506,0.56097 0.91406,0.79297c0.347,0.219 0.72595,0.41975 1.12695,0.59375c0.376,0.165 0.72931,0.32905 1.07031,0.49805c0.315,0.146 0.78892,0.35414 1.41992,0.61914c0.592,0.251 1.18563,0.58052 1.76563,0.97852c0.563,0.387 1.06147,0.87522 1.48047,1.44922c0.396,0.543 0.58789,1.18861 0.58789,1.97461c0,0.729 -0.15494,1.38799 -0.46094,1.95898c-0.312,0.581 -0.74983,1.08223 -1.29883,1.49023c-0.563,0.42 -1.24444,0.75037 -2.02344,0.98438c-1.139,0.34 -2.39616,0.43611 -3.91016,0.28711c-0.468,-0.048 -0.93658,-0.11798 -1.39258,-0.20898c-0.465,-0.093 -0.9118,-0.20208 -1.3418,-0.33008c-0.256,-0.076 -0.49117,-0.15533 -0.70117,-0.23633l0.33203,-1.57031c0.5,0.186 1.05049,0.35853 1.64648,0.51953c0.841,0.227 1.7875,0.33984 2.8125,0.33984c1.109,0 2.0638,-0.20723 2.8418,-0.61523c0.87,-0.457 1.33008,-1.22661 1.33008,-2.22461c0,-0.479 -0.12419,-0.91292 -0.36719,-1.29492c-0.226,-0.352 -0.52281,-0.66378 -0.88281,-0.92578c-0.336,-0.246 -0.73455,-0.47659 -1.18555,-0.68359c-0.424,-0.193 -0.8678,-0.38594 -1.3418,-0.58594c-0.613,-0.235 -1.22898,-0.50292 -1.83398,-0.79492c-0.584,-0.28 -1.12633,-0.62158 -1.61133,-1.01758c-0.466,-0.378 -0.85153,-0.82227 -1.14453,-1.32227c-0.277,-0.472 -0.41602,-1.05256 -0.41602,-1.72656c0,-0.747 0.15308,-1.39116 0.45508,-1.91016c0.308,-0.532 0.71684,-0.9735 1.21484,-1.3125c0.514,-0.35 1.11883,-0.60944 1.79883,-0.77344c0.759,-0.184 1.56211,-0.26391 2.36523,-0.25391z"></path></g></g></svg>